<mxfile host="app.diagrams.net" modified="2021-04-20T08:29:36.588Z" agent="5.0 (Windows)" etag="fOnxtgsHS2zGOPJkNcI2" version="14.5.10" type="github">
  <diagram id="J3yp8_w61n-bzooCAdTO" name="Page-1">
    <mxGraphModel dx="953" dy="528" grid="1" gridSize="10" guides="1" tooltips="1" connect="1" arrows="1" fold="1" page="1" pageScale="1" pageWidth="1169" pageHeight="827" math="0" shadow="0">
      <root>
        <mxCell id="0" />
        <mxCell id="1" parent="0" />
        <mxCell id="2z99AdJUxNKqwO63mtbT-4" style="edgeStyle=orthogonalEdgeStyle;rounded=0;orthogonalLoop=1;jettySize=auto;html=1;exitX=0.5;exitY=1;exitDx=0;exitDy=0;entryX=0.5;entryY=0;entryDx=0;entryDy=0;" edge="1" parent="1" source="2z99AdJUxNKqwO63mtbT-1" target="2z99AdJUxNKqwO63mtbT-3">
          <mxGeometry relative="1" as="geometry" />
        </mxCell>
        <mxCell id="2z99AdJUxNKqwO63mtbT-1" value="" style="rounded=0;whiteSpace=wrap;html=1;" vertex="1" parent="1">
          <mxGeometry x="220" y="30" width="160" height="80" as="geometry" />
        </mxCell>
        <mxCell id="2z99AdJUxNKqwO63mtbT-2" value="&lt;div&gt;Packet&lt;/div&gt;&lt;div&gt;congif:&lt;br&gt;&lt;/div&gt;" style="rounded=0;whiteSpace=wrap;html=1;" vertex="1" parent="1">
          <mxGeometry x="240" y="40" width="90" height="40" as="geometry" />
        </mxCell>
        <mxCell id="2z99AdJUxNKqwO63mtbT-6" style="edgeStyle=orthogonalEdgeStyle;rounded=0;orthogonalLoop=1;jettySize=auto;html=1;exitX=0.5;exitY=1;exitDx=0;exitDy=0;entryX=0;entryY=0.5;entryDx=0;entryDy=0;" edge="1" parent="1" source="2z99AdJUxNKqwO63mtbT-3" target="2z99AdJUxNKqwO63mtbT-5">
          <mxGeometry relative="1" as="geometry" />
        </mxCell>
        <mxCell id="2z99AdJUxNKqwO63mtbT-8" style="edgeStyle=orthogonalEdgeStyle;rounded=0;orthogonalLoop=1;jettySize=auto;html=1;exitX=1;exitY=0.5;exitDx=0;exitDy=0;entryX=0;entryY=0.5;entryDx=0;entryDy=0;" edge="1" parent="1" source="2z99AdJUxNKqwO63mtbT-3" target="2z99AdJUxNKqwO63mtbT-7">
          <mxGeometry relative="1" as="geometry" />
        </mxCell>
        <mxCell id="2z99AdJUxNKqwO63mtbT-3" value="&lt;div&gt;Driver&lt;/div&gt;" style="rounded=0;whiteSpace=wrap;html=1;" vertex="1" parent="1">
          <mxGeometry x="220" y="160" width="160" height="90" as="geometry" />
        </mxCell>
        <mxCell id="2z99AdJUxNKqwO63mtbT-9" style="edgeStyle=orthogonalEdgeStyle;rounded=0;orthogonalLoop=1;jettySize=auto;html=1;exitX=0.5;exitY=0;exitDx=0;exitDy=0;entryX=0.5;entryY=1;entryDx=0;entryDy=0;" edge="1" parent="1" source="2z99AdJUxNKqwO63mtbT-5" target="2z99AdJUxNKqwO63mtbT-7">
          <mxGeometry relative="1" as="geometry" />
        </mxCell>
        <mxCell id="2z99AdJUxNKqwO63mtbT-5" value="DUT" style="rounded=0;whiteSpace=wrap;html=1;" vertex="1" parent="1">
          <mxGeometry x="430" y="300" width="220" height="190" as="geometry" />
        </mxCell>
        <mxCell id="2z99AdJUxNKqwO63mtbT-7" value="Scoreboard" style="rounded=0;whiteSpace=wrap;html=1;" vertex="1" parent="1">
          <mxGeometry x="480" y="175" width="120" height="60" as="geometry" />
        </mxCell>
      </root>
    </mxGraphModel>
  </diagram>
</mxfile>
